<svg width="237" height="140" viewBox="0 0 237 140" fill="none" xmlns="http://www.w3.org/2000/svg">
<path d="M147.387 18.6018C145.313 18.6018 143.323 19.4814 141.856 21.0472C140.39 22.6129 139.566 24.7365 139.566 26.9508V48.1014C137.986 46.7557 136.003 46.0675 133.985 46.1648C131.966 46.262 130.049 47.1381 128.59 48.6302L118.708 59.2055L108.827 48.6302C107.368 47.1381 105.451 46.262 103.432 46.1648C101.414 46.0675 99.4306 46.7557 97.8514 48.1014V26.9508C97.8514 24.7365 97.0273 22.6129 95.5605 21.0472C94.0937 19.4814 92.1043 18.6018 90.0299 18.6018C87.9556 18.6018 85.9661 19.4814 84.4993 21.0472C83.0325 22.6129 82.2085 24.7365 82.2085 26.9508V60.8475L89.7953 82.4434L85.8064 90.9593H151.611L147.622 82.4434L155.208 60.8475V26.9508C155.208 24.7365 154.384 22.6129 152.918 21.0472C151.451 19.4814 149.461 18.6018 147.387 18.6018ZM116.101 85.3934H94.2535L95.4789 82.7774L87.4228 59.8456V26.9508C87.4228 26.2127 87.6975 25.5048 88.1864 24.9829C88.6753 24.461 89.3385 24.1678 90.0299 24.1678C90.7214 24.1678 91.3845 24.461 91.8735 24.9829C92.3624 25.5048 92.6371 26.2127 92.6371 26.9508V55.9216L106.429 70.6714L110.131 66.7196L101.006 56.9791C100.733 56.6918 100.517 56.3494 100.369 55.972C100.221 55.5946 100.145 55.1896 100.145 54.7806C100.145 54.3715 100.221 53.9665 100.369 53.5891C100.517 53.2117 100.733 52.8694 101.006 52.582C101.556 52.0075 102.296 51.6858 103.066 51.6858C103.836 51.6858 104.575 52.0075 105.125 52.582L116.101 64.2705V85.3934ZM149.994 59.8456L141.938 82.7774L143.163 85.3934H121.316V64.2705L132.292 52.582C132.842 52.0075 133.581 51.6858 134.351 51.6858C135.121 51.6858 135.861 52.0075 136.411 52.582C136.684 52.8694 136.9 53.2117 137.048 53.5891C137.196 53.9665 137.272 54.3715 137.272 54.7806C137.272 55.1896 137.196 55.5946 137.048 55.972C136.9 56.3494 136.684 56.6918 136.411 56.9791L127.286 66.7196L130.988 70.6714L144.78 55.9216V26.9508C144.78 26.2127 145.055 25.5048 145.544 24.9829C146.032 24.461 146.696 24.1678 147.387 24.1678C148.079 24.1678 148.742 24.461 149.231 24.9829C149.72 25.5048 149.994 26.2127 149.994 26.9508V59.8456Z" fill="#FFB1B1"/>
<path d="M118.709 14.0101C117.053 13.0516 115.129 12.7629 113.291 13.197C111.452 13.6312 109.821 14.759 108.699 16.3734C107.577 17.9877 107.038 19.9802 107.181 21.9847C107.324 23.9892 108.141 25.8712 109.48 27.2849L118.709 37.1367L127.938 27.2849C129.403 25.7195 130.226 23.5975 130.226 21.385C130.226 19.1725 129.403 17.0505 127.938 15.4851C126.752 14.2133 125.214 13.383 123.552 13.1173C121.89 12.8516 120.191 13.1647 118.709 14.0101ZM124.236 23.3609L118.709 29.2608L113.182 23.3609C112.937 23.1022 112.743 22.7944 112.611 22.4553C112.479 22.1161 112.411 21.7524 112.411 21.385C112.411 21.0176 112.479 20.6539 112.611 20.3147C112.743 19.9756 112.937 19.6678 113.182 19.4091C113.67 18.8907 114.331 18.5998 115.02 18.5998C115.708 18.5998 116.369 18.8907 116.858 19.4091L118.709 21.385L120.56 19.4091C121.048 18.8907 121.709 18.5998 122.398 18.5998C123.087 18.5998 123.747 18.8907 124.236 19.4091C124.48 19.6678 124.674 19.9756 124.807 20.3147C124.939 20.6539 125.007 21.0176 125.007 21.385C125.007 21.7524 124.939 22.1161 124.807 22.4553C124.674 22.7944 124.48 23.1022 124.236 23.3609Z" fill="#FFB1B1"/>
<path d="M121.315 40.8657H116.101V46.4317H121.315V40.8657Z" fill="#FFB1B1"/>
<path d="M15.7999 127.382C15.7095 127.224 15.6295 127.062 15.5597 126.895C15.4898 126.729 15.4221 126.558 15.3564 126.383L9.03696 108.723C9.03696 108.679 9.0308 108.64 9.01848 108.605C9.00616 108.57 9 108.534 9 108.499C9 108.254 9.15193 108.131 9.45579 108.131H13.4224C13.7344 108.131 13.948 108.298 14.0629 108.631L17.8201 120.597C18.1568 119.597 18.4792 118.6 18.7871 117.605C19.0951 116.61 19.3989 115.613 19.6987 114.614C19.9985 113.615 20.3023 112.617 20.6103 111.622C20.9182 110.627 21.2406 109.63 21.5773 108.631C21.6923 108.298 21.9181 108.131 22.2548 108.131H26.1352C26.324 108.131 26.4575 108.168 26.5355 108.243C26.6135 108.317 26.6525 108.416 26.6525 108.539C26.6525 108.609 26.6484 108.657 26.6402 108.683V108.723L20.2838 126.383C20.2428 126.505 20.1935 126.641 20.136 126.79C20.0785 126.939 20.0128 127.077 19.9389 127.204C19.865 127.332 19.7788 127.439 19.6802 127.527C19.5817 127.614 19.4708 127.658 19.3476 127.658H16.3049C16.0503 127.658 15.882 127.566 15.7999 127.382ZM26.1598 119.321C26.1598 118.515 26.2563 117.739 26.4493 116.994C26.6423 116.249 26.9133 115.558 27.2623 114.923C27.6113 114.287 28.0302 113.709 28.5188 113.187C29.0074 112.666 29.5515 112.221 30.151 111.852C30.7505 111.484 31.3973 111.199 32.0912 110.998C32.7852 110.796 33.5099 110.695 34.2654 110.695C35.3823 110.695 36.4315 110.917 37.4128 111.359C38.3942 111.802 39.2483 112.411 39.9751 113.187C40.7019 113.963 41.2768 114.875 41.6997 115.922C42.1226 116.97 42.3341 118.103 42.3341 119.321C42.3341 120.128 42.2376 120.901 42.0446 121.642C41.8516 122.383 41.5806 123.073 41.2316 123.713C40.8826 124.353 40.4637 124.934 39.9751 125.456C39.4865 125.977 38.9424 126.424 38.3429 126.797C37.7434 127.169 37.1008 127.456 36.415 127.658C35.7293 127.86 35.0128 127.961 34.2654 127.961C33.5099 127.961 32.7852 127.86 32.0912 127.658C31.3973 127.456 30.7505 127.169 30.151 126.797C29.5515 126.424 29.0074 125.977 28.5188 125.456C28.0302 124.934 27.6113 124.353 27.2623 123.713C26.9133 123.073 26.6423 122.383 26.4493 121.642C26.2563 120.901 26.1598 120.128 26.1598 119.321ZM30.6561 119.321C30.6561 119.9 30.7403 120.441 30.9086 120.945C31.077 121.449 31.3151 121.885 31.6231 122.254C31.9311 122.622 32.3047 122.913 32.7441 123.128C33.1835 123.343 33.6783 123.45 34.2285 123.45C34.7623 123.45 35.2448 123.343 35.6759 123.128C36.1071 122.913 36.4725 122.622 36.7723 122.254C37.072 121.885 37.302 121.449 37.4621 120.945C37.6223 120.441 37.7023 119.9 37.7023 119.321C37.7023 118.76 37.6223 118.226 37.4621 117.717C37.302 117.209 37.072 116.762 36.7723 116.376C36.4725 115.99 36.1071 115.686 35.6759 115.462C35.2448 115.238 34.7623 115.127 34.2285 115.127C33.6783 115.127 33.1835 115.238 32.7441 115.462C32.3047 115.686 31.9311 115.99 31.6231 116.376C31.3151 116.762 31.077 117.209 30.9086 117.717C30.7403 118.226 30.6561 118.76 30.6561 119.321ZM44.7855 107C44.7855 106.72 44.8512 106.483 44.9826 106.29C45.114 106.097 45.3399 106.001 45.6601 106.001H48.6782C48.7603 106.001 48.8465 106.025 48.9369 106.073C49.0272 106.122 49.1114 106.189 49.1894 106.277C49.2674 106.365 49.3331 106.47 49.3865 106.593C49.4399 106.715 49.4666 106.851 49.4666 107V126.646C49.4666 126.979 49.3783 127.231 49.2017 127.402C49.0252 127.573 48.7973 127.658 48.518 127.658H45.6601C45.3399 127.658 45.114 127.573 44.9826 127.402C44.8512 127.231 44.7855 126.979 44.7855 126.646V107ZM66.9467 127.435C66.8399 127.531 66.727 127.592 66.6079 127.619C66.4888 127.645 66.3759 127.658 66.2691 127.658H64.409C64.2612 127.658 64.1339 127.63 64.0272 127.573C63.9204 127.516 63.8301 127.439 63.7562 127.343C63.6822 127.246 63.6206 127.137 63.5714 127.014C63.5221 126.891 63.481 126.764 63.4482 126.632L63.0663 124.949C62.9431 125.221 62.7645 125.53 62.5304 125.876C62.2964 126.223 61.9987 126.547 61.6374 126.849C61.276 127.152 60.8449 127.406 60.3439 127.612C59.8429 127.818 59.2681 127.921 58.6193 127.921C57.6831 127.921 56.8331 127.728 56.0693 127.343C55.3056 126.957 54.6548 126.431 54.1169 125.765C53.5789 125.098 53.1622 124.32 52.8665 123.431C52.5709 122.541 52.423 121.592 52.423 120.584V111.971C52.423 111.638 52.4908 111.386 52.6263 111.215C52.7618 111.044 52.9774 110.958 53.273 110.958H56.1186C56.4718 110.958 56.714 111.022 56.8454 111.149C56.9768 111.276 57.0425 111.524 57.0425 111.892V120.452C57.0425 120.829 57.1226 121.186 57.2827 121.524C57.4429 121.861 57.6543 122.159 57.9171 122.418C58.1799 122.677 58.4776 122.88 58.8102 123.029C59.1428 123.179 59.4816 123.253 59.8265 123.253C60.1222 123.253 60.4281 123.179 60.7443 123.029C61.0604 122.88 61.352 122.681 61.6189 122.431C61.8858 122.181 62.1055 121.888 62.2779 121.55C62.4504 121.213 62.5366 120.855 62.5366 120.479V111.931C62.5366 111.782 62.5633 111.633 62.6167 111.484C62.6701 111.335 62.7501 111.221 62.8569 111.142C62.9637 111.072 63.0643 111.024 63.1587 110.998C63.2531 110.971 63.362 110.958 63.4851 110.958H66.2691C66.6223 110.958 66.8769 111.05 67.0329 111.234C67.1889 111.419 67.267 111.664 67.267 111.971V126.685C67.267 126.852 67.232 127.005 67.1622 127.145C67.0924 127.286 66.9959 127.395 66.8728 127.474L66.9467 127.435ZM70.5437 111.182C70.6505 111.085 70.7634 111.024 70.8825 110.998C71.0015 110.971 71.1145 110.958 71.2212 110.958H73.0813C73.2292 110.958 73.3564 110.987 73.4632 111.044C73.57 111.101 73.6603 111.177 73.7342 111.274C73.8081 111.37 73.8677 111.48 73.9128 111.603C73.958 111.725 74.0011 111.852 74.0422 111.984L74.4241 113.667C74.5472 113.395 74.7259 113.086 74.9599 112.74C75.194 112.394 75.4917 112.069 75.853 111.767C76.2144 111.465 76.6435 111.21 77.1403 111.004C77.6372 110.798 78.2141 110.695 78.8711 110.695C79.8073 110.695 80.6573 110.888 81.421 111.274C82.1848 111.66 82.8356 112.186 83.3735 112.852C83.9114 113.518 84.3282 114.296 84.6239 115.186C84.9195 116.076 85.0673 117.025 85.0673 118.033V126.646C85.0673 126.979 84.9996 127.231 84.8641 127.402C84.7286 127.573 84.513 127.658 84.2173 127.658H81.3717C81.0186 127.658 80.7763 127.595 80.6449 127.467C80.5135 127.34 80.4478 127.093 80.4478 126.724V118.164C80.4478 117.787 80.3678 117.43 80.2076 117.093C80.0475 116.755 79.836 116.457 79.5732 116.198C79.3104 115.94 79.0127 115.736 78.6801 115.587C78.3475 115.438 78.0088 115.363 77.6638 115.363C77.3682 115.363 77.0664 115.434 76.7584 115.574C76.4505 115.714 76.1671 115.909 75.9084 116.159C75.6498 116.409 75.4321 116.702 75.2556 117.04C75.079 117.377 74.9784 117.743 74.9538 118.138V126.685C74.9538 126.834 74.9271 126.983 74.8737 127.132C74.8203 127.281 74.7402 127.395 74.6335 127.474C74.5267 127.544 74.4261 127.592 74.3317 127.619C74.2372 127.645 74.1284 127.658 74.0052 127.658H71.2212C70.8681 127.658 70.6135 127.566 70.4575 127.382C70.3014 127.198 70.2234 126.952 70.2234 126.646V111.931C70.2234 111.765 70.2583 111.611 70.3281 111.471C70.3979 111.331 70.4944 111.221 70.6176 111.142L70.5437 111.182ZM88.9723 108.355C88.9723 108.083 89.0565 107.879 89.2248 107.743C89.3932 107.607 89.6334 107.478 89.9455 107.355L92.7418 106.317C92.7829 106.308 92.8219 106.303 92.8588 106.303H92.9635C93.2674 106.303 93.4707 106.398 93.5733 106.586C93.676 106.775 93.7273 107.022 93.7273 107.329L93.715 111.471H95.7722C96.035 111.471 96.2485 111.554 96.4127 111.721C96.577 111.888 96.6591 112.137 96.6591 112.471V115.008C96.6591 115.377 96.577 115.646 96.4127 115.817C96.2485 115.988 96.035 116.073 95.7722 116.073H93.715L93.7273 126.646C93.7273 126.979 93.637 127.231 93.4563 127.402C93.2756 127.573 93.0251 127.658 92.7048 127.658H89.9208C89.2885 127.658 88.9723 127.321 88.9723 126.646L88.96 116.073H88.0607C87.4284 116.073 87.1122 115.718 87.1122 115.008V112.471C87.1122 111.804 87.4284 111.471 88.0607 111.471H88.96L88.9723 108.355ZM111.331 125.659C110.608 126.369 109.795 126.924 108.891 127.323C107.988 127.722 107.031 127.921 106.021 127.921C104.896 127.921 103.833 127.702 102.831 127.264C101.829 126.825 100.95 126.218 100.195 125.442C99.439 124.667 98.8395 123.753 98.396 122.701C97.9526 121.649 97.7308 120.505 97.7308 119.269C97.7308 118.497 97.8191 117.75 97.9957 117.027C98.1723 116.304 98.4227 115.626 98.7471 114.995C99.0715 114.364 99.4657 113.783 99.9297 113.253C100.394 112.723 100.913 112.269 101.488 111.892C102.063 111.515 102.687 111.221 103.36 111.011C104.034 110.801 104.744 110.695 105.492 110.695C106.173 110.695 106.834 110.792 107.475 110.985C108.115 111.177 108.717 111.449 109.28 111.8C109.842 112.151 110.357 112.571 110.825 113.062C111.294 113.553 111.696 114.09 112.033 114.673C112.369 115.256 112.63 115.878 112.815 116.54C113 117.202 113.092 117.884 113.092 118.585C113.092 119.041 113.086 119.413 113.074 119.703C113.061 119.992 112.998 120.222 112.883 120.393C112.768 120.564 112.577 120.682 112.31 120.748C112.043 120.814 111.651 120.847 111.133 120.847H102.264C102.346 121.408 102.513 121.877 102.763 122.254C103.013 122.631 103.303 122.931 103.631 123.154C103.96 123.378 104.309 123.538 104.679 123.634C105.048 123.731 105.397 123.779 105.726 123.779C106.021 123.779 106.325 123.746 106.637 123.68C106.949 123.615 107.251 123.527 107.543 123.417C107.834 123.308 108.101 123.181 108.343 123.036C108.586 122.891 108.781 122.74 108.928 122.582C109.06 122.468 109.173 122.383 109.267 122.326C109.362 122.269 109.462 122.241 109.569 122.241C109.676 122.241 109.785 122.28 109.895 122.359C110.006 122.438 110.132 122.552 110.271 122.701L111.577 124.279C111.667 124.393 111.725 124.496 111.749 124.588C111.774 124.68 111.786 124.774 111.786 124.87C111.786 125.046 111.741 125.197 111.651 125.324C111.561 125.451 111.454 125.563 111.331 125.659ZM105.405 114.706C105.085 114.706 104.775 114.774 104.475 114.91C104.176 115.046 103.894 115.228 103.631 115.455C103.369 115.683 103.133 115.942 102.923 116.231C102.714 116.521 102.543 116.814 102.412 117.112H108.707C108.534 116.77 108.347 116.455 108.146 116.165C107.945 115.876 107.715 115.622 107.456 115.403C107.198 115.184 106.902 115.013 106.569 114.89C106.237 114.767 105.849 114.706 105.405 114.706ZM128.774 125.659C128.051 126.369 127.238 126.924 126.335 127.323C125.431 127.722 124.475 127.921 123.464 127.921C122.339 127.921 121.276 127.702 120.274 127.264C119.272 126.825 118.393 126.218 117.638 125.442C116.882 124.667 116.283 123.753 115.839 122.701C115.396 121.649 115.174 120.505 115.174 119.269C115.174 118.497 115.262 117.75 115.439 117.027C115.615 116.304 115.866 115.626 116.19 114.995C116.515 114.364 116.909 113.783 117.373 113.253C117.837 112.723 118.356 112.269 118.931 111.892C119.506 111.515 120.13 111.221 120.804 111.011C121.477 110.801 122.187 110.695 122.935 110.695C123.616 110.695 124.277 110.792 124.918 110.985C125.559 111.177 126.16 111.449 126.723 111.8C127.285 112.151 127.801 112.571 128.269 113.062C128.737 113.553 129.139 114.09 129.476 114.673C129.813 115.256 130.073 115.878 130.258 116.54C130.443 117.202 130.535 117.884 130.535 118.585C130.535 119.041 130.529 119.413 130.517 119.703C130.504 119.992 130.441 120.222 130.326 120.393C130.211 120.564 130.02 120.682 129.753 120.748C129.486 120.814 129.094 120.847 128.577 120.847H119.707C119.789 121.408 119.956 121.877 120.206 122.254C120.457 122.631 120.746 122.931 121.075 123.154C121.403 123.378 121.752 123.538 122.122 123.634C122.491 123.731 122.84 123.779 123.169 123.779C123.464 123.779 123.768 123.746 124.08 123.68C124.392 123.615 124.694 123.527 124.986 123.417C125.277 123.308 125.544 123.181 125.786 123.036C126.029 122.891 126.224 122.74 126.372 122.582C126.503 122.468 126.616 122.383 126.71 122.326C126.805 122.269 126.905 122.241 127.012 122.241C127.119 122.241 127.228 122.28 127.339 122.359C127.449 122.438 127.575 122.552 127.714 122.701L129.02 124.279C129.11 124.393 129.168 124.496 129.193 124.588C129.217 124.68 129.229 124.774 129.229 124.87C129.229 125.046 129.184 125.197 129.094 125.324C129.004 125.451 128.897 125.563 128.774 125.659ZM122.848 114.706C122.528 114.706 122.218 114.774 121.918 114.91C121.619 115.046 121.337 115.228 121.075 115.455C120.812 115.683 120.576 115.942 120.366 116.231C120.157 116.521 119.986 116.814 119.855 117.112H126.15C125.977 116.77 125.791 116.455 125.589 116.165C125.388 115.876 125.158 115.622 124.899 115.403C124.641 115.184 124.345 115.013 124.013 114.89C123.68 114.767 123.292 114.706 122.848 114.706ZM133.11 111.931C133.11 111.782 133.141 111.64 133.202 111.504C133.264 111.368 133.34 111.261 133.43 111.182C133.644 111.033 133.865 110.958 134.095 110.958H135.955C136.111 110.958 136.235 110.989 136.325 111.05C136.415 111.112 136.491 111.191 136.553 111.287C136.614 111.383 136.668 111.493 136.713 111.616C136.758 111.739 136.814 111.861 136.879 111.984C136.896 112.019 136.929 112.105 136.978 112.24C137.027 112.376 137.081 112.525 137.138 112.687C137.196 112.85 137.251 113.003 137.304 113.148C137.358 113.292 137.393 113.387 137.409 113.43C137.655 113.141 137.892 112.837 138.117 112.517C138.343 112.197 138.583 111.901 138.838 111.629C139.093 111.357 139.376 111.134 139.688 110.958C140 110.783 140.37 110.695 140.797 110.695C141.24 110.695 141.636 110.73 141.985 110.801C142.334 110.871 142.665 110.974 142.977 111.11C143.289 111.245 143.599 111.419 143.907 111.629C144.215 111.839 144.55 112.085 144.911 112.365C145.478 112.69 145.584 113.172 145.231 113.812L144.11 115.85C143.946 116.113 143.745 116.275 143.507 116.336C143.269 116.398 143.01 116.358 142.731 116.218C142.378 115.85 142.018 115.576 141.653 115.396C141.287 115.217 140.871 115.127 140.402 115.127C140.082 115.127 139.801 115.175 139.559 115.271C139.316 115.368 139.097 115.504 138.9 115.679C138.702 115.854 138.518 116.065 138.345 116.31C138.173 116.556 138 116.827 137.828 117.125V126.646C137.828 126.979 137.752 127.231 137.6 127.402C137.448 127.573 137.196 127.658 136.842 127.658H134.071C133.43 127.658 133.11 127.321 133.11 126.646V111.931ZM152.832 127.382C152.742 127.224 152.662 127.062 152.592 126.895C152.522 126.729 152.454 126.558 152.388 126.383L146.069 108.723C146.069 108.679 146.063 108.64 146.051 108.605C146.038 108.57 146.032 108.534 146.032 108.499C146.032 108.254 146.184 108.131 146.488 108.131H150.454C150.766 108.131 150.98 108.298 151.095 108.631L154.852 120.597C155.189 119.597 155.511 118.6 155.819 117.605C156.127 116.61 156.431 115.613 156.731 114.614C157.031 113.615 157.334 112.617 157.642 111.622C157.95 110.627 158.273 109.63 158.609 108.631C158.724 108.298 158.95 108.131 159.287 108.131H163.167C163.356 108.131 163.49 108.168 163.568 108.243C163.646 108.317 163.685 108.416 163.685 108.539C163.685 108.609 163.68 108.657 163.672 108.683V108.723L157.316 126.383C157.275 126.505 157.226 126.641 157.168 126.79C157.111 126.939 157.045 127.077 156.971 127.204C156.897 127.332 156.811 127.439 156.712 127.527C156.614 127.614 156.503 127.658 156.38 127.658H153.337C153.082 127.658 152.914 127.566 152.832 127.382ZM165.385 111.984C165.385 111.703 165.458 111.462 165.606 111.261C165.754 111.059 165.984 110.958 166.296 110.958H169.117C169.216 110.958 169.322 110.982 169.437 111.031C169.552 111.079 169.659 111.149 169.758 111.241C169.856 111.333 169.94 111.44 170.01 111.563C170.08 111.686 170.115 111.826 170.115 111.984V126.646C170.115 126.979 170.029 127.231 169.856 127.402C169.684 127.573 169.437 127.658 169.117 127.658H166.296C165.688 127.658 165.385 127.321 165.385 126.646V111.984ZM165.385 105.33C165.385 104.962 165.458 104.701 165.606 104.548C165.754 104.395 165.984 104.318 166.296 104.318H169.154C169.441 104.318 169.673 104.395 169.85 104.548C170.027 104.701 170.115 104.962 170.115 105.33V107.895C170.115 108 170.092 108.114 170.047 108.236C170.002 108.359 169.938 108.477 169.856 108.591C169.774 108.705 169.673 108.8 169.554 108.874C169.435 108.949 169.302 108.986 169.154 108.986H166.296C165.688 108.986 165.385 108.622 165.385 107.895V105.33ZM175.412 122.464C175.634 122.701 175.874 122.9 176.133 123.062C176.391 123.225 176.64 123.356 176.878 123.457C177.116 123.558 177.325 123.63 177.506 123.674C177.687 123.718 177.81 123.74 177.876 123.74C178.032 123.74 178.231 123.733 178.473 123.72C178.715 123.707 178.947 123.667 179.169 123.601C179.391 123.536 179.582 123.428 179.742 123.279C179.902 123.13 179.982 122.92 179.982 122.648C179.982 122.403 179.937 122.208 179.847 122.063C179.756 121.918 179.625 121.796 179.452 121.695C179.28 121.594 179.068 121.504 178.818 121.425C178.568 121.346 178.286 121.254 177.974 121.149C176.989 120.869 176.176 120.531 175.535 120.137C174.895 119.742 174.387 119.302 174.014 118.815C173.64 118.329 173.379 117.805 173.232 117.244C173.084 116.683 173.01 116.091 173.01 115.469C173.01 114.741 173.145 114.079 173.416 113.483C173.687 112.887 174.073 112.376 174.574 111.951C175.075 111.526 175.675 111.197 176.373 110.965C177.071 110.733 177.847 110.616 178.701 110.616C179.218 110.616 179.703 110.662 180.155 110.755C180.606 110.847 181.037 110.991 181.448 111.188C181.859 111.386 182.259 111.64 182.649 111.951C183.039 112.262 183.427 112.633 183.813 113.062C183.953 113.238 184.025 113.402 184.029 113.555C184.033 113.709 183.94 113.873 183.752 114.048C183.431 114.329 183.125 114.605 182.834 114.877C182.542 115.149 182.241 115.451 181.928 115.784C181.83 115.872 181.731 115.927 181.633 115.949C181.534 115.97 181.44 115.968 181.349 115.942C181.259 115.916 181.173 115.872 181.091 115.81C181.009 115.749 180.935 115.675 180.869 115.587C180.582 115.245 180.253 115.015 179.884 114.897C179.514 114.778 179.169 114.719 178.849 114.719C178.446 114.719 178.126 114.794 177.888 114.943C177.65 115.092 177.539 115.32 177.555 115.626C177.572 115.854 177.652 116.032 177.796 116.159C177.939 116.286 178.116 116.389 178.325 116.468C178.535 116.547 178.756 116.61 178.99 116.659C179.225 116.707 179.44 116.762 179.637 116.823C180.376 117.077 181.054 117.353 181.67 117.651C182.286 117.949 182.819 118.315 183.271 118.749C183.723 119.183 184.074 119.703 184.324 120.308C184.575 120.912 184.7 121.649 184.7 122.517C184.7 123.385 184.538 124.16 184.214 124.844C183.889 125.528 183.444 126.102 182.877 126.567C182.31 127.031 181.639 127.386 180.863 127.632C180.087 127.877 179.251 128 178.356 128C177.847 128 177.329 127.952 176.804 127.855C176.278 127.759 175.769 127.603 175.276 127.389C174.784 127.174 174.316 126.898 173.872 126.56C173.429 126.223 173.034 125.813 172.689 125.331C172.599 125.208 172.531 125.079 172.486 124.943C172.441 124.807 172.421 124.673 172.425 124.542C172.429 124.41 172.453 124.29 172.499 124.18C172.544 124.07 172.616 123.976 172.714 123.897L174.303 122.201C174.5 122.026 174.675 121.964 174.827 122.017C174.979 122.07 175.174 122.219 175.412 122.464ZM187.324 111.984C187.324 111.703 187.398 111.462 187.546 111.261C187.694 111.059 187.923 110.958 188.236 110.958H191.057C191.155 110.958 191.262 110.982 191.377 111.031C191.492 111.079 191.599 111.149 191.697 111.241C191.796 111.333 191.88 111.44 191.95 111.563C192.019 111.686 192.054 111.826 192.054 111.984V126.646C192.054 126.979 191.968 127.231 191.796 127.402C191.623 127.573 191.377 127.658 191.057 127.658H188.236C187.628 127.658 187.324 127.321 187.324 126.646V111.984ZM187.324 105.33C187.324 104.962 187.398 104.701 187.546 104.548C187.694 104.395 187.923 104.318 188.236 104.318H191.093C191.381 104.318 191.613 104.395 191.789 104.548C191.966 104.701 192.054 104.962 192.054 105.33V107.895C192.054 108 192.032 108.114 191.987 108.236C191.941 108.359 191.878 108.477 191.796 108.591C191.714 108.705 191.613 108.8 191.494 108.874C191.375 108.949 191.241 108.986 191.093 108.986H188.236C187.628 108.986 187.324 108.622 187.324 107.895V105.33ZM194.53 119.321C194.53 118.515 194.627 117.739 194.82 116.994C195.013 116.249 195.284 115.558 195.633 114.923C195.982 114.287 196.401 113.709 196.889 113.187C197.378 112.666 197.922 112.221 198.522 111.852C199.121 111.484 199.768 111.199 200.462 110.998C201.156 110.796 201.88 110.695 202.636 110.695C203.753 110.695 204.802 110.917 205.783 111.359C206.765 111.802 207.619 112.411 208.346 113.187C209.072 113.963 209.647 114.875 210.07 115.922C210.493 116.97 210.705 118.103 210.705 119.321C210.705 120.128 210.608 120.901 210.415 121.642C210.222 122.383 209.951 123.073 209.602 123.713C209.253 124.353 208.834 124.934 208.346 125.456C207.857 125.977 207.313 126.424 206.713 126.797C206.114 127.169 205.471 127.456 204.786 127.658C204.1 127.86 203.383 127.961 202.636 127.961C201.88 127.961 201.156 127.86 200.462 127.658C199.768 127.456 199.121 127.169 198.522 126.797C197.922 126.424 197.378 125.977 196.889 125.456C196.401 124.934 195.982 124.353 195.633 123.713C195.284 123.073 195.013 122.383 194.82 121.642C194.627 120.901 194.53 120.128 194.53 119.321ZM199.027 119.321C199.027 119.9 199.111 120.441 199.279 120.945C199.448 121.449 199.686 121.885 199.994 122.254C200.302 122.622 200.675 122.913 201.115 123.128C201.554 123.343 202.049 123.45 202.599 123.45C203.133 123.45 203.615 123.343 204.046 123.128C204.478 122.913 204.843 122.622 205.143 122.254C205.443 121.885 205.673 121.449 205.833 120.945C205.993 120.441 206.073 119.9 206.073 119.321C206.073 118.76 205.993 118.226 205.833 117.717C205.673 117.209 205.443 116.762 205.143 116.376C204.843 115.99 204.478 115.686 204.046 115.462C203.615 115.238 203.133 115.127 202.599 115.127C202.049 115.127 201.554 115.238 201.115 115.462C200.675 115.686 200.302 115.99 199.994 116.376C199.686 116.762 199.448 117.209 199.279 117.717C199.111 118.226 199.027 118.76 199.027 119.321ZM213.476 111.182C213.583 111.085 213.696 111.024 213.815 110.998C213.934 110.971 214.047 110.958 214.154 110.958H216.014C216.162 110.958 216.289 110.987 216.396 111.044C216.503 111.101 216.593 111.177 216.667 111.274C216.741 111.37 216.8 111.48 216.845 111.603C216.891 111.725 216.934 111.852 216.975 111.984L217.357 113.667C217.48 113.395 217.659 113.086 217.893 112.74C218.127 112.394 218.424 112.069 218.786 111.767C219.147 111.465 219.576 111.21 220.073 111.004C220.57 110.798 221.147 110.695 221.804 110.695C222.74 110.695 223.59 110.888 224.354 111.274C225.117 111.66 225.768 112.186 226.306 112.852C226.844 113.518 227.261 114.296 227.557 115.186C227.852 116.076 228 117.025 228 118.033V126.646C228 126.979 227.932 127.231 227.797 127.402C227.661 127.573 227.446 127.658 227.15 127.658H224.304C223.951 127.658 223.709 127.595 223.578 127.467C223.446 127.34 223.381 127.093 223.381 126.724V118.164C223.381 117.787 223.3 117.43 223.14 117.093C222.98 116.755 222.769 116.457 222.506 116.198C222.243 115.94 221.945 115.736 221.613 115.587C221.28 115.438 220.941 115.363 220.597 115.363C220.301 115.363 219.999 115.434 219.691 115.574C219.383 115.714 219.1 115.909 218.841 116.159C218.582 116.409 218.365 116.702 218.188 117.04C218.012 117.377 217.911 117.743 217.886 118.138V126.685C217.886 126.834 217.86 126.983 217.806 127.132C217.753 127.281 217.673 127.395 217.566 127.474C217.459 127.544 217.359 127.592 217.264 127.619C217.17 127.645 217.061 127.658 216.938 127.658H214.154C213.801 127.658 213.546 127.566 213.39 127.382C213.234 127.198 213.156 126.952 213.156 126.646V111.931C213.156 111.765 213.191 111.611 213.261 111.471C213.331 111.331 213.427 111.221 213.55 111.142L213.476 111.182Z" fill="#1244A5"/>
</svg>
