<svg xmlns="http://www.w3.org/2000/svg" viewBox="0 0 64 80" x="0px" y="0px"><defs><style>.cls-1{stroke-width:0px;}</style></defs><path class="cls-1" d="m4.94,40.17c-.29.5.08,1.13.66,1.13h25.54c.56,0,1.07-.3,1.34-.78l4.53-7.99H9.27l-4.33,7.65Z"/><path class="cls-1" d="m41.88,41.66l-2.88-5.08v23.43h13.38c1.3,0,2.35-1.05,2.35-2.35v-14.36h-10.05c-1.16,0-2.23-.63-2.81-1.63Z"/><path class="cls-1" d="m59.21,40.42l-4.47-7.9h-15.73l4.62,8.15c.22.38.62.62,1.07.62h14.01c.45,0,.73-.48.51-.87Z"/><path class="cls-1" d="m31.13,43.29H9.27v14.36c0,1.3,1.05,2.35,2.35,2.35h25.38v-23.43l-2.79,4.92c-.63,1.11-1.81,1.8-3.08,1.8Zm-17.11,6.79h5.52c.55,0,1,.45,1,1s-.45,1-1,1h-5.52c-.55,0-1-.45-1-1s.45-1,1-1Zm9.52,6h-9.52c-.55,0-1-.45-1-1s.45-1,1-1h9.52c.55,0,1,.45,1,1s-.45,1-1,1Z"/><path class="cls-1" d="m31.64,19.03v-9.03c0-3.32-2.69-6-6-6-5.6,0-9.49,4-10.34,9.29l5.64-1.93c.52-.18,1.09.1,1.27.62s-.1,1.09-.62,1.27l-6.47,2.21v4.27l5.82-2c.52-.18,1.09.1,1.27.62.18.53-.1,1.09-.62,1.27l-6.47,2.22v4.27l5.82-2.01c.52-.18,1.09.1,1.27.63.18.52-.1,1.09-.62,1.27l-6.47,2.22v2.3h11.55c-1.03-5.01,1.04-9.86,4.97-11.49Z"/><path class="cls-1" d="m28.72,30.52h19.84c1.08-4.43-.66-8.71-4.11-9.81-1.06-.34-2.16-.32-3.23-.03,1.4-2.29,1.74-4.61.75-5.24-1.03-.65-3.08.73-4.59,3.1-.46.72-.8,1.5-1.05,2.22-2-.63-3.5-.06-3.5-.06-3.45,1.1-5.19,5.38-4.11,9.81Z"/><text x="0" y="79" fill="#000000" font-size="5px" font-weight="bold" font-family="'Helvetica Neue', Helvetica, Arial-Unicode, Arial, Sans-serif">Created by Andi Nur Abdillah</text><text x="0" y="84" fill="#000000" font-size="5px" font-weight="bold" font-family="'Helvetica Neue', Helvetica, Arial-Unicode, Arial, Sans-serif">from the Noun Project</text></svg>