<svg xmlns="http://www.w3.org/2000/svg" version="1.1" viewBox="-5.0 -10.0 110.0 135.0">
 <path d="m25.949 74.484h-6.5547v6.5547h6.5547zm64.852-24.605h-18.941c-11.938 0.007813-9.2695-13.508-21.348-13.508-12.992 0-10.629 13.512-22.371 13.512l-18.867-0.003906v43.586h33.273v-26.367c0-7.25 14.902-7.3164 14.902 0v26.367h33.348v-43.586zm-72.16 15.035h16.125c0.41406 0 0.75391 0.33984 0.75391 0.75391v16.125c0 0.41406-0.33594 0.75391-0.75391 0.75391h-16.125c-0.41406 0-0.75391-0.33594-0.75391-0.75391v-16.125c0-0.41406 0.33984-0.75391 0.75391-0.75391zm46.594 0h16.125c0.41406 0 0.75391 0.33984 0.75391 0.75391v16.125c0 0.41406-0.33984 0.75391-0.75391 0.75391h-16.125c-0.41406 0-0.75391-0.33594-0.75391-0.75391v-16.125c0-0.41406 0.33594-0.75391 0.75391-0.75391zm-62.242-20.242h25.148c7.6484-0.007813 6.8594-13.516 22.371-13.516 14.906 0 13.508 13.512 21.348 13.512l25.133 0.007812-7.2812-22.906h-79.781zm68.867 3.7031c8.4688 0.003906 16.938 0.003906 25.406 0.003906v-2.2031l-25.406-0.003906c-9.1602 0.007813-7.1484-13.508-21.348-13.508-14.883 0-13.426 13.512-22.371 13.512h-25.406v2.2031h25.406c10.66-0.007812 8.5-13.516 22.371-13.516 13.055 0 10.508 13.512 21.348 13.516zm-27.805 45.086h11.891v-26.367c-0.097656-5.4922-12.148-5.0391-11.891 0zm-25.836-80.734v7.5312h10.27v-7.5312zm12.184-6.1953h-14.098v4.6875h14.098zm35.582 66.441h6.5547v-6.5547h-6.5547zm8.0625 0h6.5547v-6.5547h-6.5547zm6.5547 1.5078h-6.5547v6.5547h6.5547zm-8.0625 0h-6.5547v6.5547h6.5547zm-53.152-1.5078h6.5547v-6.5547h-6.5547zm8.0625 0h6.5547v-6.5547h-6.5547zm6.5547 1.5078h-6.5547v6.5547h6.5547z"/>
<text x="0.0" y="117.5" font-size="5.0" font-weight="bold" font-family="Arbeit Regular, Helvetica, Arial-Unicode, Arial, Sans-serif" fill="#000000">Created by ddgs</text><text x="0.0" y="122.5" font-size="5.0" font-weight="bold" font-family="Arbeit Regular, Helvetica, Arial-Unicode, Arial, Sans-serif" fill="#000000">from Noun Project</text></svg>