<svg xmlns="http://www.w3.org/2000/svg" xmlns:xlink="http://www.w3.org/1999/xlink" version="1.1" x="0px" y="0px" viewBox="0 0 100 125" style="enable-background:new 0 0 100 100;" xml:space="preserve"><g><rect x="63.19" y="70.62" width="21.08" height="29.41"/><polygon points="63.61,62.77 63.19,62.77 63.19,68.87 84.27,68.87 84.27,62.77 63.62,62.77  "/><path d="M85.93,39.62V26.33c0-0.58-0.22-1.12-0.63-1.53c-0.41-0.41-0.96-0.63-1.53-0.63c-1.19,0-2.16,0.97-2.16,2.16v13.28   c0,0.48-0.39,0.88-0.88,0.88h-0.05c-0.48,0-0.88-0.39-0.88-0.88v-20.5c0-1.19-0.97-2.16-2.16-2.16c-1.19,0-2.17,0.97-2.17,2.16   v20.5c0,0.48-0.39,0.88-0.88,0.88h-0.05c-0.48,0-0.88-0.39-0.88-0.88V16.95c0-1.19-0.97-2.17-2.17-2.17   c-1.19,0-2.17,0.97-2.17,2.17v22.66c0,0.48-0.39,0.88-0.88,0.88H68.4c-0.48,0-0.88-0.39-0.88-0.88V19.84   c0-1.19-0.97-2.16-2.17-2.16c-0.03,0-0.06,0-0.09,0c-1.15,0.05-2.07,1-2.07,2.16l0.08,23.3c0,0.06-0.01,0.13-0.02,0.19   c0.08,0.37-0.1,0.77-0.46,0.96c-0.43,0.22-0.96,0.05-1.18-0.38l-4.42-8.59c-0.56-1.04-1.87-1.44-2.93-0.88   c-0.71,0.38-1.15,1.11-1.15,1.92c0,0.36,0.08,0.7,0.25,1.02l4.9,9.3l2.96,5.61l1.28,2.17c0.02,0.03,0.04,0.05,0.05,0.08l1.78,3.01   c0.02,0.03,0.04,0.06,0.05,0.09c0.63,1.06,1.12,2.21,1.44,3.4h16.04c0.26-0.93,0.61-1.83,1.06-2.69L84.66,55   c0.91-1.76,1.39-3.73,1.37-5.72L85.93,39.62z"/><path d="M34.91,28.4c0.6,0.51,1.03,1.2,1.24,1.99c0.65-0.49,1.46-0.77,2.34-0.77c2.16,0,3.92,1.75,3.92,3.92v3.99   c0.63-0.44,1.39-0.69,2.22-0.69c1.04,0,2.03,0.41,2.77,1.15c0.74,0.74,1.15,1.72,1.15,2.77v5.45h7.51l-4.22-8.01   c-0.3-0.56-0.46-1.2-0.46-1.84c0-1.45,0.8-2.78,2.07-3.46c1.91-1.02,4.28-0.29,5.3,1.61l2.76,5.37l-0.07-20.02   c0-1.82,1.25-3.37,2.95-3.8v-4.53c0-0.58-0.22-1.12-0.63-1.53c-0.41-0.41-0.95-0.64-1.53-0.64c-1.19,0-2.16,0.97-2.16,2.17V24.8   c0,0.48-0.39,0.88-0.88,0.88h-0.05c-0.48,0-0.88-0.39-0.88-0.88V4.3c0-1.19-0.97-2.16-2.16-2.16c-1.2,0-2.17,0.97-2.17,2.16v20.5   c0,0.48-0.39,0.88-0.88,0.88h-0.05c-0.48,0-0.88-0.39-0.88-0.88V2.14c0-1.19-0.97-2.17-2.17-2.17c-1.19,0-2.17,0.97-2.17,2.17V24.8   c0,0.48-0.39,0.88-0.88,0.88h-0.05c-0.48,0-0.88-0.39-0.88-0.88V5.02c0-1.19-0.97-2.16-2.17-2.16s-2.16,0.97-2.16,2.16l0.08,23.3   c0,0.06-0.01,0.13-0.02,0.19c0.08,0.37-0.1,0.77-0.46,0.96c-0.43,0.22-0.96,0.05-1.18-0.38l-4.42-8.6   c-0.56-1.04-1.87-1.44-2.92-0.88c-0.71,0.38-1.15,1.11-1.15,1.92c0,0.36,0.08,0.7,0.25,1.02L34.91,28.4z"/><path d="M48.54,54.05h11.71l-0.54-0.91c-0.01-0.01-0.01-0.02-0.02-0.04l-2.71-5.15h-8.43V54.05z"/><rect x="24.05" y="85.03" width="21.09" height="15"/><rect x="24.05" y="77.18" width="21.09" height="6.1"/><path d="M48.56,55.8l0.08,7.88c0.02,2.27-0.52,4.53-1.57,6.54l-1.73,3.32c-0.32,0.61-0.58,1.24-0.78,1.88h1.45   c0.48,0,0.88,0.39,0.88,0.88v23.73h14.55V61.89c0-0.48,0.39-0.88,0.88-0.88h0.42v-2.76l-1.45-2.46H48.56z"/><path d="M26.7,75.43h16.04c0.26-0.93,0.61-1.83,1.06-2.69l1.72-3.32c0.91-1.76,1.39-3.73,1.37-5.72l-0.09-8.78l-0.01-0.89V40.75   c0-0.58-0.22-1.12-0.63-1.53c-0.41-0.41-0.95-0.63-1.53-0.63c-1.19,0-2.17,0.97-2.17,2.16v1.58c0,0.04,0,0.07,0,0.11v4.54   c0,0.03,0,0.06,0,0.09c0,0.03,0,0.06,0,0.09v6.87c0,0.46-0.36,0.84-0.81,0.87v0.02c0,0.48-0.39,0.88-0.87,0.88h-0.01   c-0.48,0-0.88-0.39-0.88-0.88c0-0.44,0.33-0.81,0.76-0.87V33.53c0-1.19-0.97-2.16-2.17-2.16c-1.19,0-2.16,0.97-2.16,2.16v20.5   c0,0.48-0.39,0.88-0.88,0.88H35.4c-0.48,0-0.88-0.39-0.88-0.88V31.37c0-0.06,0-0.12-0.01-0.18c-0.05-0.62-0.37-1.18-0.84-1.53   c-0.37-0.29-0.83-0.46-1.32-0.46c-1.19,0-2.16,0.97-2.16,2.17v22.66c0,0.48-0.39,0.88-0.88,0.88h-0.05c-0.48,0-0.88-0.39-0.88-0.88   V34.25c0-1.19-0.97-2.16-2.16-2.16c-1.19,0-2.17,0.97-2.17,2.16l0.08,23.3c0,0.06-0.01,0.12-0.02,0.18c0,0,0,0,0,0   c0.08,0.38-0.1,0.77-0.46,0.96c-0.43,0.22-0.96,0.05-1.18-0.38l-4.42-8.59c-0.56-1.04-1.87-1.44-2.92-0.88   c-0.71,0.38-1.15,1.11-1.15,1.92c0,0.36,0.09,0.7,0.26,1.02l7.86,14.91l3.17,5.34C25.89,73.09,26.37,74.24,26.7,75.43z"/></g><text x="0" y="115" fill="#000000" font-size="5px" font-weight="bold" font-family="'Helvetica Neue', Helvetica, Arial-Unicode, Arial, Sans-serif">Created by ABDUL LATIF</text><text x="0" y="120" fill="#000000" font-size="5px" font-weight="bold" font-family="'Helvetica Neue', Helvetica, Arial-Unicode, Arial, Sans-serif">from the Noun Project</text></svg>